<svg viewBox="0 0 284 284" xmlns="http://www.w3.org/2000/svg">
<path fill="var(--primary)" d="M145.755 81.37C105.991 81.37 81.058 98.5802 67.1536 113.001C49.174 131.799 39.1017 156.724 39 182.669C39 209.43 49.4699 234.063 68.4727 252.018C87.1308 269.654 112.325 279.37 139.397 279.37C167.694 279.37 194.065 269.335 213.661 251.108C233.865 232.314 245 206.274 245 177.823C245 117.433 194.54 81.37 145.755 81.37ZM146.338 263.011C135.941 263.129 125.639 261.039 116.12 256.881C106.601 252.722 98.0828 246.591 91.1358 238.898C76.4826 222.633 68.7342 200.317 68.7342 174.336C68.7342 149.868 75.9479 129.809 89.6146 116.334C101.63 104.514 118.6 97.871 137.377 97.7291C159.957 97.7291 179.233 105.483 192.947 120.187C207.921 136.239 215.848 160.376 215.848 189.868C215.848 240.387 180.933 263.011 146.338 263.011Z"/>
<path fill="var(--primary)" d="M209 63.37H186.205L142.081 19.4378L97.6962 63.37H76L137.356 3.37H147.655L209 63.37Z"/>
</svg>
